<svg width="160" height="105" viewBox="0 0 160 105" fill="none" xmlns="http://www.w3.org/2000/svg">
<path d="M29.3889 0.5H40.9444V12.0556H29.3889V40.9444C29.3889 44.0092 28.1714 46.9484 26.0043 49.1155C23.8373 51.2825 20.8981 52.5 17.8333 52.5C20.8981 52.5 23.8373 53.7175 26.0043 55.8845C28.1714 58.0516 29.3889 60.9908 29.3889 64.0556V92.9444H40.9444V104.5H29.3889C23.2067 102.94 17.8333 99.3 17.8333 92.9444V69.8333C17.8333 66.7686 16.6159 63.8294 14.4488 61.6623C12.2817 59.4952 9.3425 58.2778 6.27778 58.2778H0.5V46.7222H6.27778C9.3425 46.7222 12.2817 45.5048 14.4488 43.3377C16.6159 41.1706 17.8333 38.2314 17.8333 35.1667V12.0556C17.8333 8.99083 19.0508 6.05163 21.2179 3.88454C23.385 1.71746 26.3242 0.5 29.3889 0.5ZM130.13 0.5C133.194 0.5 136.133 1.71746 138.301 3.88454C140.468 6.05163 141.685 8.99083 141.685 12.0556V35.1667C141.685 38.2314 142.903 41.1706 145.07 43.3377C147.237 45.5048 150.176 46.7222 153.241 46.7222H159.018V58.2778H153.241C150.176 58.2778 147.237 59.4952 145.07 61.6623C142.903 63.8294 141.685 66.7686 141.685 69.8333V92.9444C141.685 96.0092 140.468 98.9484 138.301 101.115C136.133 103.283 133.194 104.5 130.13 104.5H118.574V92.9444H130.13V64.0556C130.13 60.9908 131.347 58.0516 133.514 55.8845C135.681 53.7175 138.62 52.5 141.685 52.5C138.62 52.5 135.681 51.2825 133.514 49.1155C131.347 46.9484 130.13 44.0092 130.13 40.9444V12.0556H118.574V0.5H130.13Z" stroke="#CC6B00"/>
<path d="M82.9699 70.8048C82.0198 70.1699 80.9027 69.8311 79.76 69.8311C78.2276 69.8311 76.758 70.4398 75.6745 71.5233C74.5909 72.6069 73.9822 74.0765 73.9822 75.6088C73.9822 76.7516 74.3211 77.8686 74.9559 78.8188C75.5908 79.7689 76.4932 80.5095 77.5489 80.9468C78.6047 81.3841 79.7664 81.4985 80.8872 81.2756C82.008 81.0527 83.0375 80.5024 83.8455 79.6943C84.6535 78.8863 85.2038 77.8568 85.4267 76.736C85.6497 75.6152 85.5353 74.4535 85.098 73.3978C84.6606 72.342 83.9201 71.4397 82.9699 70.8048Z" fill="#FF9F33"/>
<path d="M59.8588 70.8048C58.9087 70.1699 57.7916 69.8311 56.6489 69.8311C55.1165 69.8311 53.6469 70.4398 52.5634 71.5233C51.4798 72.6069 50.8711 74.0765 50.8711 75.6088C50.8711 76.7516 51.21 77.8686 51.8448 78.8188C52.4797 79.7689 53.3821 80.5095 54.4378 80.9468C55.4936 81.3841 56.6553 81.4985 57.7761 81.2756C58.8968 81.0527 59.9263 80.5024 60.7344 79.6943C61.5424 78.8863 62.0927 77.8568 62.3156 76.736C62.5386 75.6152 62.4241 74.4535 61.9868 73.3978C61.5495 72.342 60.809 71.4397 59.8588 70.8048Z" fill="#FF9F33"/>
<path d="M106.081 70.8048C105.131 70.1699 104.014 69.8311 102.871 69.8311C101.339 69.8311 99.8691 70.4398 98.7856 71.5233C97.702 72.6069 97.0933 74.0765 97.0933 75.6088C97.0933 76.7516 97.4322 77.8686 98.0671 78.8188C98.7019 79.7689 99.6043 80.5095 100.66 80.9468C101.716 81.3841 102.878 81.4985 103.998 81.2756C105.119 81.0527 106.149 80.5024 106.957 79.6943C107.765 78.8863 108.315 77.8568 108.538 76.736C108.761 75.6152 108.646 74.4535 108.209 73.3978C107.772 72.342 107.031 71.4397 106.081 70.8048Z" fill="#FF9F33"/>
<path d="M82.9699 70.8048C82.0198 70.1699 80.9027 69.8311 79.76 69.8311C78.2276 69.8311 76.758 70.4398 75.6745 71.5233C74.5909 72.6069 73.9822 74.0765 73.9822 75.6088C73.9822 76.7516 74.3211 77.8686 74.9559 78.8188C75.5908 79.7689 76.4932 80.5095 77.5489 80.9468C78.6047 81.3841 79.7664 81.4985 80.8872 81.2756C82.008 81.0527 83.0375 80.5024 83.8455 79.6943C84.6535 78.8863 85.2038 77.8568 85.4267 76.736C85.6497 75.6152 85.5353 74.4535 85.098 73.3978C84.6606 72.342 83.9201 71.4397 82.9699 70.8048Z" stroke="#FF9F33" stroke-width="2"/>
<path d="M59.8588 70.8048C58.9087 70.1699 57.7916 69.8311 56.6489 69.8311C55.1165 69.8311 53.6469 70.4398 52.5634 71.5233C51.4798 72.6069 50.8711 74.0765 50.8711 75.6088C50.8711 76.7516 51.21 77.8686 51.8448 78.8188C52.4797 79.7689 53.3821 80.5095 54.4378 80.9468C55.4936 81.3841 56.6553 81.4985 57.7761 81.2756C58.8968 81.0527 59.9263 80.5024 60.7344 79.6943C61.5424 78.8863 62.0927 77.8568 62.3156 76.736C62.5386 75.6152 62.4241 74.4535 61.9868 73.3978C61.5495 72.342 60.809 71.4397 59.8588 70.8048Z" stroke="#FF9F33" stroke-width="2"/>
<path d="M106.081 70.8048C105.131 70.1699 104.014 69.8311 102.871 69.8311C101.339 69.8311 99.8691 70.4398 98.7856 71.5233C97.702 72.6069 97.0933 74.0765 97.0933 75.6088C97.0933 76.7516 97.4322 77.8686 98.0671 78.8188C98.7019 79.7689 99.6043 80.5095 100.66 80.9468C101.716 81.3841 102.878 81.4985 103.998 81.2756C105.119 81.0527 106.149 80.5024 106.957 79.6943C107.765 78.8863 108.315 77.8568 108.538 76.736C108.761 75.6152 108.646 74.4535 108.209 73.3978C107.772 72.342 107.031 71.4397 106.081 70.8048Z" stroke="#FF9F33" stroke-width="2"/>
</svg>
