<svg width="192" height="192" viewBox="0 0 192 192" fill="none" xmlns="http://www.w3.org/2000/svg">
<rect width="192" height="192" rx="48" fill="#593A1B"/>
<path d="M53.6291 44H65.1847V55.5556H53.6291V84.4444C53.6291 87.5092 52.4117 90.4484 50.2446 92.6155C48.0775 94.7825 45.1383 96 42.0736 96C45.1383 96 48.0775 97.2175 50.2446 99.3845C52.4117 101.552 53.6291 104.491 53.6291 107.556V136.444H65.1847V148H53.6291C47.4469 146.44 42.0736 142.8 42.0736 136.444V113.333C42.0736 110.269 40.8561 107.329 38.689 105.162C36.5219 102.995 33.5827 101.778 30.518 101.778H24.7402V90.2222H30.518C33.5827 90.2222 36.5219 89.0048 38.689 86.8377C40.8561 84.6706 42.0736 81.7314 42.0736 78.6667V55.5556C42.0736 52.4908 43.291 49.5516 45.4581 47.3845C47.6252 45.2175 50.5644 44 53.6291 44ZM138.37 44C141.435 44 144.374 45.2175 146.541 47.3845C148.708 49.5516 149.925 52.4908 149.925 55.5556V78.6667C149.925 81.7314 151.143 84.6706 153.31 86.8377C155.477 89.0048 158.416 90.2222 161.481 90.2222H167.259V101.778H161.481C158.416 101.778 155.477 102.995 153.31 105.162C151.143 107.329 149.925 110.269 149.925 113.333V136.444C149.925 139.509 148.708 142.448 146.541 144.615C144.374 146.783 141.435 148 138.37 148H126.814V136.444H138.37V107.556C138.37 104.491 139.587 101.552 141.754 99.3845C143.921 97.2175 146.861 96 149.925 96C146.861 96 143.921 94.7825 141.754 92.6155C139.587 90.4484 138.37 87.5092 138.37 84.4444V55.5556H126.814V44H138.37Z" fill="#FF9F33" stroke="#FF9F33" stroke-width="2"/>
<path d="M99.2082 114.305C98.2581 113.67 97.141 113.331 95.9983 113.331C94.4659 113.331 92.9963 113.94 91.9128 115.023C90.8292 116.107 90.2205 117.576 90.2205 119.109C90.2205 120.252 90.5593 121.369 91.1942 122.319C91.8291 123.269 92.7315 124.009 93.7872 124.447C94.843 124.884 96.0047 124.999 97.1255 124.776C98.2462 124.553 99.2757 124.002 100.084 123.194C100.892 122.386 101.442 121.357 101.665 120.236C101.888 119.115 101.774 117.954 101.336 116.898C100.899 115.842 100.158 114.94 99.2082 114.305Z" fill="#FFE033"/>
<path d="M76.0971 114.305C75.147 113.67 74.0299 113.331 72.8872 113.331C71.3548 113.331 69.8852 113.94 68.8016 115.023C67.7181 116.107 67.1094 117.576 67.1094 119.109C67.1094 120.252 67.4482 121.369 68.0831 122.319C68.718 123.269 69.6203 124.009 70.6761 124.447C71.7318 124.884 72.8936 124.999 74.0143 124.776C75.1351 124.553 76.1646 124.002 76.9727 123.194C77.7807 122.386 78.331 121.357 78.5539 120.236C78.7769 119.115 78.6624 117.954 78.2251 116.898C77.7878 115.842 77.0473 114.94 76.0971 114.305Z" fill="#FFE033"/>
<path d="M122.319 114.305C121.369 113.67 120.252 113.331 119.109 113.331C117.577 113.331 116.107 113.94 115.024 115.023C113.94 116.107 113.332 117.576 113.332 119.109C113.332 120.252 113.67 121.369 114.305 122.319C114.94 123.269 115.843 124.009 116.898 124.447C117.954 124.884 119.116 124.999 120.237 124.776C121.357 124.553 122.387 124.002 123.195 123.194C124.003 122.386 124.553 121.357 124.776 120.236C124.999 119.115 124.885 117.954 124.447 116.898C124.01 115.842 123.269 114.94 122.319 114.305Z" fill="#FFE033"/>
<path d="M99.2082 114.305C98.2581 113.67 97.141 113.331 95.9983 113.331C94.4659 113.331 92.9963 113.94 91.9128 115.023C90.8292 116.107 90.2205 117.576 90.2205 119.109C90.2205 120.252 90.5593 121.369 91.1942 122.319C91.8291 123.269 92.7315 124.009 93.7872 124.447C94.843 124.884 96.0047 124.999 97.1255 124.776C98.2462 124.553 99.2757 124.002 100.084 123.194C100.892 122.386 101.442 121.357 101.665 120.236C101.888 119.115 101.774 117.954 101.336 116.898C100.899 115.842 100.158 114.94 99.2082 114.305Z" stroke="#FFE033" stroke-width="2"/>
<path d="M76.0971 114.305C75.147 113.67 74.0299 113.331 72.8872 113.331C71.3548 113.331 69.8852 113.94 68.8016 115.023C67.7181 116.107 67.1094 117.576 67.1094 119.109C67.1094 120.252 67.4482 121.369 68.0831 122.319C68.718 123.269 69.6203 124.009 70.6761 124.447C71.7318 124.884 72.8936 124.999 74.0143 124.776C75.1351 124.553 76.1646 124.002 76.9727 123.194C77.7807 122.386 78.331 121.357 78.5539 120.236C78.7769 119.115 78.6624 117.954 78.2251 116.898C77.7878 115.842 77.0473 114.94 76.0971 114.305Z" stroke="#FFE033" stroke-width="2"/>
<path d="M122.319 114.305C121.369 113.67 120.252 113.331 119.109 113.331C117.577 113.331 116.107 113.94 115.024 115.023C113.94 116.107 113.332 117.576 113.332 119.109C113.332 120.252 113.67 121.369 114.305 122.319C114.94 123.269 115.843 124.009 116.898 124.447C117.954 124.884 119.116 124.999 120.237 124.776C121.357 124.553 122.387 124.002 123.195 123.194C124.003 122.386 124.553 121.357 124.776 120.236C124.999 119.115 124.885 117.954 124.447 116.898C124.01 115.842 123.269 114.94 122.319 114.305Z" stroke="#FFE033" stroke-width="2"/>
</svg>
