<svg width="442" height="98" viewBox="0 0 442 98" fill="none" xmlns="http://www.w3.org/2000/svg">
<path d="M139.766 72.6636V37.3356H148.982V52.5036H148.47C148.47 48.8343 148.939 45.8049 149.878 43.4156C150.816 40.9836 152.203 39.1703 154.038 37.9756C155.915 36.7809 158.176 36.1836 160.822 36.1836H161.334C165.344 36.1836 168.438 37.5276 170.614 40.2156C172.832 42.8609 173.942 46.9356 173.942 52.4396V72.6636H162.294V52.1196C162.294 50.4983 161.803 49.1756 160.822 48.1516C159.883 47.0849 158.582 46.5516 156.918 46.5516C155.254 46.5516 153.91 47.0849 152.886 48.1516C151.904 49.1756 151.414 50.5409 151.414 52.2476V72.6636H139.766Z" fill="black"/>
<path d="M117.153 73.9437C114.167 73.9437 111.521 73.4317 109.217 72.4077C106.913 71.3837 104.972 69.997 103.393 68.2477C101.815 66.4983 100.599 64.5357 99.7453 62.3597C98.9346 60.1837 98.5293 57.9437 98.5293 55.6397V54.3597C98.5293 51.9703 98.9346 49.6877 99.7453 47.5117C100.599 45.293 101.793 43.3303 103.329 41.6237C104.908 39.917 106.828 38.573 109.089 37.5917C111.351 36.5677 113.911 36.0557 116.769 36.0557C120.567 36.0557 123.788 36.909 126.433 38.6157C129.079 40.3223 131.105 42.5837 132.513 45.3997C133.921 48.173 134.625 51.2023 134.625 54.4877V58.1997H103.393V51.9277H127.905L123.873 54.7437C123.873 52.7383 123.596 51.053 123.041 49.6877C122.529 48.2797 121.74 47.213 120.673 46.4877C119.649 45.7623 118.348 45.3997 116.769 45.3997C115.233 45.3997 113.889 45.7623 112.737 46.4877C111.628 47.1703 110.775 48.237 110.177 49.6877C109.58 51.0957 109.281 52.8877 109.281 55.0637C109.281 57.0263 109.559 58.733 110.113 60.1837C110.668 61.5917 111.521 62.6797 112.673 63.4477C113.825 64.2157 115.319 64.5997 117.153 64.5997C118.775 64.5997 120.097 64.3223 121.121 63.7677C122.188 63.213 122.935 62.4663 123.361 61.5277H133.985C133.473 63.917 132.449 66.0503 130.913 67.9277C129.42 69.805 127.5 71.277 125.153 72.3437C122.849 73.4103 120.183 73.9437 117.153 73.9437Z" fill="black"/>
<path d="M56.2656 85.4645V37.3365H65.4816V52.5685H64.4576C64.5856 49.1125 65.2683 46.1685 66.5056 43.7365C67.7856 41.3045 69.5136 39.4698 71.6896 38.2325C73.8656 36.9525 76.3616 36.3125 79.1776 36.3125C81.6096 36.3125 83.807 36.7605 85.7696 37.6565C87.7323 38.5098 89.4176 39.7472 90.8256 41.3685C92.2336 42.9472 93.3003 44.8245 94.0256 47.0005C94.7936 49.1765 95.1776 51.5658 95.1776 54.1685V55.7045C95.1776 58.3072 94.8363 60.7178 94.1536 62.9365C93.471 65.1125 92.447 67.0325 91.0816 68.6965C89.7163 70.3178 88.031 71.5765 86.0256 72.4725C84.063 73.3685 81.8016 73.8165 79.2416 73.8165C76.511 73.8165 74.1003 73.2832 72.0096 72.2165C69.919 71.1072 68.255 69.4645 67.0176 67.2885C65.823 65.0698 65.183 62.2965 65.0976 58.9685L67.9136 62.4245V85.4645H56.2656ZM75.7216 64.2165C77.2576 64.2165 78.6016 63.8325 79.7536 63.0645C80.9483 62.2538 81.8656 61.1445 82.5056 59.7365C83.1883 58.3285 83.5296 56.7285 83.5296 54.9365C83.5296 53.1018 83.1883 51.5232 82.5056 50.2005C81.8656 48.8352 80.9696 47.7898 79.8176 47.0645C78.6656 46.2965 77.3003 45.9125 75.7216 45.9125C74.3136 45.9125 72.991 46.2325 71.7536 46.8725C70.559 47.5125 69.5776 48.4512 68.8096 49.6885C68.0416 50.9258 67.6576 52.4192 67.6576 54.1685V56.3445C67.6576 58.0085 68.063 59.4378 68.8736 60.6325C69.6843 61.7845 70.7083 62.6805 71.9456 63.3205C73.183 63.9178 74.4416 64.2165 75.7216 64.2165Z" fill="black"/>
<path d="M25.3762 73.9441C21.1095 73.9441 17.3975 73.2188 14.2402 71.7681C11.0828 70.2748 8.45882 68.3335 6.36816 65.9441C4.27749 63.5121 2.72016 60.8881 1.69616 58.0721C0.672156 55.2561 0.160156 52.5255 0.160156 49.8801V48.4721C0.160156 45.5281 0.69349 42.6481 1.76016 39.8321C2.82682 36.9735 4.42682 34.3921 6.56016 32.0881C8.69349 29.7841 11.3175 27.9495 14.4322 26.5841C17.5895 25.2188 21.2375 24.5361 25.3762 24.5361C29.4722 24.5361 33.0775 25.2188 36.1922 26.5841C39.3495 27.9495 41.9948 29.7841 44.1282 32.0881C46.2615 34.3921 47.8615 36.9735 48.9282 39.8321C50.0375 42.6481 50.5922 45.5281 50.5922 48.4721V49.8801C50.5922 52.5255 50.0588 55.2561 48.9922 58.0721C47.9682 60.8881 46.4108 63.5121 44.3202 65.9441C42.2295 68.3335 39.6055 70.2748 36.4482 71.7681C33.2908 73.2188 29.6002 73.9441 25.3762 73.9441ZM25.3762 62.8081C27.4242 62.8081 29.2588 62.4668 30.8802 61.7841C32.5015 61.1015 33.8882 60.1415 35.0402 58.9041C36.1922 57.6668 37.0668 56.2375 37.6642 54.6161C38.2615 52.9521 38.5602 51.1601 38.5602 49.2401C38.5602 47.1921 38.2402 45.3361 37.6002 43.6721C37.0028 42.0081 36.1282 40.5788 34.9762 39.3841C33.8242 38.1895 32.4375 37.2721 30.8162 36.6321C29.1948 35.9921 27.3815 35.6721 25.3762 35.6721C23.3282 35.6721 21.4935 35.9921 19.8722 36.6321C18.2508 37.2721 16.8642 38.1895 15.7122 39.3841C14.5602 40.5788 13.6855 42.0081 13.0882 43.6721C12.4908 45.3361 12.1922 47.1921 12.1922 49.2401C12.1922 51.1601 12.4908 52.9521 13.0882 54.6161C13.6855 56.2375 14.5602 57.6668 15.7122 58.9041C16.8642 60.1415 18.2508 61.1015 19.8722 61.7841C21.4935 62.4668 23.3282 62.8081 25.3762 62.8081Z" fill="black"/>
<rect x="199" width="243" height="98" rx="24" fill="#593A1B"/>
<path d="M261.429 56.3604C261.429 60.0296 260.724 63.1659 259.316 65.7686C257.951 68.3284 255.967 70.291 253.364 71.6562C250.762 73.0215 247.583 73.7041 243.828 73.7041C240.116 73.7041 236.938 73.0214 234.293 71.6562C231.69 70.291 229.684 68.3284 228.276 65.7686C226.911 63.1659 226.229 60.0296 226.229 56.3604V53.7998H238.005V56.7441C238.005 58.4507 238.495 59.8585 239.477 60.9678C240.501 62.0344 241.93 62.5684 243.765 62.5684C245.599 62.5683 247.007 62.0344 247.988 60.9678C249.012 59.8585 249.524 58.4508 249.524 56.7441V36.0723H231.477V25.7041H261.429V56.3604ZM285.655 24.2959C289.495 24.2959 292.738 24.9358 295.384 26.2158C298.072 27.4958 300.119 29.3097 301.527 31.6562C302.935 33.9602 303.64 36.6479 303.64 39.7197H292.119C292.119 38.6959 291.863 37.7575 291.352 36.9043C290.84 36.051 290.093 35.3893 289.111 34.9199C288.173 34.4079 287.021 34.1523 285.655 34.1523C284.375 34.1524 283.288 34.3654 282.392 34.792C281.538 35.176 280.877 35.7307 280.407 36.4561C279.981 37.1813 279.768 37.9919 279.768 38.8877C279.768 40.0824 280.173 41.1066 280.983 41.96C281.794 42.8132 283.202 43.3254 285.207 43.4961L288.216 43.752C291.714 44.0506 294.807 44.8185 297.495 46.0557C300.183 47.2503 302.295 48.8937 303.831 50.9844C305.367 53.075 306.136 55.6348 306.136 58.6641C306.136 61.6932 305.346 64.3384 303.768 66.5996C302.232 68.8609 300.013 70.6103 297.111 71.8477C294.253 73.085 290.796 73.7041 286.743 73.7041C282.391 73.7041 278.722 73.0215 275.735 71.6562C272.791 70.2909 270.552 68.4345 269.016 66.0879C267.522 63.6986 266.775 60.9675 266.775 57.8955H278.295C278.295 59.0048 278.594 60.0291 279.191 60.9678C279.831 61.8638 280.77 62.5681 282.008 63.0801C283.245 63.5919 284.823 63.8476 286.743 63.8477C288.407 63.8477 289.816 63.6347 290.968 63.208C292.162 62.7814 293.058 62.1839 293.655 61.416C294.295 60.6481 294.615 59.7307 294.615 58.6641C294.615 57.2989 294.039 56.2536 292.888 55.5283C291.736 54.7603 289.794 54.269 287.063 54.0557L284.056 53.7998C279.234 53.3731 275.394 51.8585 272.535 49.2559C269.677 46.6532 268.247 43.197 268.247 38.8877C268.247 35.8158 268.951 33.1916 270.359 31.0156C271.81 28.8397 273.837 27.1754 276.439 26.0234C279.042 24.8715 282.114 24.2959 285.655 24.2959ZM335.202 24.2959C339.298 24.2959 342.904 24.9784 346.019 26.3438C349.176 27.709 351.821 29.5438 353.954 31.8477C356.087 34.1516 357.687 36.7332 358.754 39.5918C359.863 42.4077 360.418 45.2876 360.418 48.2314V49.6396C360.418 52.285 359.885 55.016 358.818 57.832C357.794 60.648 356.237 63.2721 354.146 65.7041C352.056 68.0934 349.432 70.035 346.274 71.5283C343.117 72.979 339.426 73.7041 335.202 73.7041C330.936 73.7041 327.224 72.9789 324.066 71.5283C320.909 70.035 318.285 68.0934 316.194 65.7041C314.104 63.2721 312.546 60.648 311.522 57.832C310.498 55.016 309.986 52.285 309.986 49.6396V48.2314C309.986 45.2876 310.519 42.4076 311.586 39.5918C312.653 36.7331 314.253 34.1517 316.387 31.8477C318.52 29.5438 321.144 27.709 324.259 26.3438C327.416 24.9786 331.064 24.2959 335.202 24.2959ZM402.676 62.9521H403.636V25.7041H414.771V72.4238H395.124L379.571 35.1758H378.611V72.4238H367.604V25.7041H387.124L402.676 62.9521ZM335.202 35.4316C333.154 35.4317 331.32 35.7516 329.698 36.3916C328.077 37.0316 326.69 37.9489 325.538 39.1436C324.386 40.3382 323.511 41.7677 322.914 43.4316C322.317 45.0956 322.019 46.952 322.019 49C322.019 50.92 322.317 52.712 322.914 54.376C323.511 55.9973 324.386 57.4267 325.538 58.6641C326.69 59.9014 328.077 60.8613 329.698 61.5439C331.32 62.2266 333.154 62.5683 335.202 62.5684C337.25 62.5684 339.085 62.2265 340.706 61.5439C342.327 60.8613 343.714 59.9013 344.866 58.6641C346.018 57.4268 346.893 55.9973 347.49 54.376C348.088 52.712 348.387 50.92 348.387 49C348.387 46.952 348.067 45.0956 347.427 43.4316C346.829 41.7677 345.955 40.3382 344.803 39.1436C343.651 37.9489 342.264 37.0316 340.643 36.3916C339.021 35.7516 337.207 35.4316 335.202 35.4316Z" fill="#FF9F33"/>
</svg>
